<svg width="124" height="125" viewBox="0 0 124 125" fill="none" xmlns="http://www.w3.org/2000/svg">
<path d="M62.3994 84.4027C61.368 84.4027 60.3996 83.8639 59.8581 82.9641L49.9423 66.4754L46.0488 73.7082C45.5302 74.6682 44.5304 75.2671 43.4388 75.2671H17.5564C15.9176 75.2671 14.5883 73.9375 14.5883 72.2983C14.5883 70.6592 15.9176 69.3324 17.5564 69.3324H41.6654L47.1891 59.0764C47.6962 58.1393 48.6646 57.5433 49.7303 57.5175C50.8276 57.4831 51.7931 58.0419 52.3432 58.956L61.5427 74.2527L71.5788 42.198C71.9455 41.0288 72.9913 40.2035 74.2146 40.1233C75.4294 40.0487 76.584 40.7222 77.0997 41.834L89.8776 69.3324H107.503C109.142 69.3324 110.471 70.6592 110.471 72.2983C110.471 73.9375 109.142 75.2642 107.503 75.2642H87.9867C86.8321 75.2642 85.7835 74.5966 85.2964 73.5477L74.9509 51.2848L65.2328 82.3194C64.8833 83.4341 63.9121 84.2393 62.7546 84.3797C62.6343 84.3969 62.5168 84.4027 62.3994 84.4027Z" fill="url(#paint0_linear_166_4)"/>
<path d="M90.1644 124.027H33.8356C15.1788 124.027 0 108.847 0 90.1837V33.8429C0 15.182 15.1788 0 33.8356 0H90.1644C108.821 0 124 15.182 124 33.8429V90.1837C124 108.847 108.821 124.027 90.1644 124.027ZM33.8356 5.93468C18.4477 5.93468 5.93055 18.4545 5.93055 33.8457V90.1865C5.93055 105.575 18.4477 118.095 33.8356 118.095H90.1644C105.549 118.095 118.069 105.575 118.069 90.1865V33.8457C118.069 18.4545 105.549 5.93468 90.1644 5.93468H33.8356Z" fill="url(#paint1_linear_166_4)"/>
<defs>
<linearGradient id="paint0_linear_166_4" x1="14.5883" y1="40.1176" x2="16.2444" y2="87.6069" gradientUnits="userSpaceOnUse">
<stop stop-color="#D15DBB"/>
<stop offset="1" stop-color="#FFACA8"/>
</linearGradient>
<linearGradient id="paint1_linear_166_4" x1="0" y1="0" x2="9.99988" y2="132.407" gradientUnits="userSpaceOnUse">
<stop stop-color="#D15DBB"/>
<stop offset="1" stop-color="#FFACA8"/>
</linearGradient>
</defs>
</svg>
