<svg width="68" height="151" viewBox="0 0 68 151" fill="none" xmlns="http://www.w3.org/2000/svg">
<path d="M58.9144 150.842H9.0876V131.865L1.79285 119.728V94.3271L4.72771 98.2998C7.4332 101.961 12.6651 104.477 13.8167 105.001L34.0308 106.647L53.3243 105.796C54.9583 104.449 60.7699 99.7345 63.898 98.2841L66.2091 97.2108V119.728L58.9144 131.865V150.842ZM12.3398 147.587H55.6606V130.963L62.9553 118.825V102.59C60.1304 104.458 56.4823 107.392 54.9881 108.645L54.5655 108.998L33.9696 109.908L13.017 108.2L12.7766 108.098C12.5551 108.004 8.52513 106.275 5.04665 103.314V118.825L12.3414 130.961V147.587H12.3398Z" fill="url(#paint0_linear_85_183)"/>
<path d="M66.2091 56.5146L63.2742 52.5419C60.5923 48.9134 55.4217 45.2063 53.9543 44.1911H14.1828C12.5551 45.6856 7.21481 50.477 4.10398 51.9212L1.79285 52.9945V31.1134L9.0876 18.977V0H58.9144V18.977L66.2091 31.1134V56.5146ZM5.04508 32.017V47.5494C7.727 45.6432 11.0656 42.6621 12.4325 41.3782L12.9007 40.9366H54.9457L55.3542 41.2085C55.5726 41.3515 59.5412 43.9963 62.9553 47.3168V32.017L55.6606 19.8806V3.2545H12.3414V19.8806L5.04508 32.017Z" fill="url(#paint1_linear_85_183)"/>
<path d="M49.445 109.023H18.555C8.32384 109.023 0 100.699 0 90.4644V59.5678C0 49.3344 8.32384 41.0088 18.555 41.0088H49.445C59.6762 41.0088 68 49.3344 68 59.5678V90.4644C68 100.699 59.6762 109.023 49.445 109.023ZM18.555 44.2633C10.1165 44.2633 3.25224 51.129 3.25224 59.5694V90.4659C3.25224 98.9047 10.1165 105.77 18.555 105.77H49.445C57.8819 105.77 64.7478 98.9047 64.7478 90.4659V59.5694C64.7478 51.129 57.8819 44.2633 49.445 44.2633H18.555Z" fill="url(#paint2_linear_85_183)"/>
<path d="M50.768 131.792H16.4876C15.5889 131.792 14.8615 131.065 14.8615 130.166C14.8615 129.267 15.5889 128.538 16.4876 128.538H50.768C51.6651 128.538 52.3941 129.267 52.3941 130.166C52.3941 131.065 51.6651 131.792 50.768 131.792Z" fill="url(#paint3_linear_85_183)"/>
<path d="M51.1389 139.977H16.8616C15.9629 139.977 15.2339 139.249 15.2339 138.35C15.2339 137.451 15.9629 136.722 16.8616 136.722H51.1405C52.0391 136.722 52.7666 137.451 52.7666 138.35C52.7666 139.249 52.0376 139.977 51.1389 139.977Z" fill="url(#paint4_linear_85_183)"/>
<path d="M50.768 20.748H16.4876C15.5889 20.748 14.8615 20.0205 14.8615 19.1216C14.8615 18.2227 15.5889 17.4951 16.4876 17.4951H50.768C51.6651 17.4951 52.3941 18.2227 52.3941 19.1216C52.3941 20.0205 51.6651 20.748 50.768 20.748Z" fill="url(#paint5_linear_85_183)"/>
<path d="M51.1389 28.9322H16.8616C15.9629 28.9322 15.2339 28.203 15.2339 27.3042C15.2339 26.4069 15.9629 25.6777 16.8616 25.6777H51.1405C52.0391 25.6777 52.7666 26.4069 52.7666 27.3042C52.7666 28.203 52.0376 28.9322 51.1389 28.9322Z" fill="url(#paint6_linear_85_183)"/>
<path d="M33.9285 84.2808C33.3629 84.2808 32.8318 83.9853 32.5349 83.4919L27.0972 74.4497L24.962 78.4161C24.6777 78.9425 24.1293 79.2709 23.5307 79.2709H9.33716C8.43848 79.2709 7.70947 78.5418 7.70947 77.6429C7.70947 76.744 8.43848 76.0164 9.33716 76.0164H22.5582L25.5873 70.3922C25.8654 69.8783 26.3965 69.5514 26.9809 69.5373C27.5827 69.5184 28.1121 69.8249 28.4138 70.3262L33.4587 78.7146L38.9624 61.1362C39.1635 60.4951 39.7369 60.0425 40.4078 59.9985C41.074 59.9576 41.7071 60.3269 41.9899 60.9367L48.9972 76.0164H58.6627C59.5614 76.0164 60.2904 76.744 60.2904 77.6429C60.2904 78.5418 59.5614 79.2694 58.6627 79.2694H47.9602C47.327 79.2694 46.752 78.9032 46.4849 78.3281L40.8116 66.1193L35.4823 83.1383C35.2906 83.7496 34.758 84.1912 34.1233 84.2682C34.0573 84.2776 33.9929 84.2808 33.9285 84.2808Z" fill="url(#paint7_linear_85_183)"/>
<defs>
<linearGradient id="paint0_linear_85_183" x1="1.6167" y1="98.3776" x2="8.08755" y2="157.284" gradientUnits="userSpaceOnUse">
<stop stop-color="#AD4499"/>
<stop offset="1" stop-color="#FFACA8"/>
</linearGradient>
<linearGradient id="paint1_linear_85_183" x1="1.6167" y1="4.05043" x2="8.08755" y2="62.9564" gradientUnits="userSpaceOnUse">
<stop stop-color="#AD4499"/>
<stop offset="1" stop-color="#FFACA8"/>
</linearGradient>
<linearGradient id="paint2_linear_85_183" x1="-0.185946" y1="45.8835" x2="8.66075" y2="116.524" gradientUnits="userSpaceOnUse">
<stop stop-color="#AD4499"/>
<stop offset="1" stop-color="#FFACA8"/>
</linearGradient>
<linearGradient id="paint3_linear_85_183" x1="14.7588" y1="128.771" x2="14.7961" y2="132.204" gradientUnits="userSpaceOnUse">
<stop stop-color="#AD4499"/>
<stop offset="1" stop-color="#FFACA8"/>
</linearGradient>
<linearGradient id="paint4_linear_85_183" x1="15.1313" y1="136.955" x2="15.1685" y2="140.388" gradientUnits="userSpaceOnUse">
<stop stop-color="#AD4499"/>
<stop offset="1" stop-color="#FFACA8"/>
</linearGradient>
<linearGradient id="paint5_linear_85_183" x1="14.7588" y1="17.7283" x2="14.7961" y2="21.1593" gradientUnits="userSpaceOnUse">
<stop stop-color="#AD4499"/>
<stop offset="1" stop-color="#FFACA8"/>
</linearGradient>
<linearGradient id="paint6_linear_85_183" x1="15.1313" y1="25.911" x2="15.1685" y2="29.3437" gradientUnits="userSpaceOnUse">
<stop stop-color="#AD4499"/>
<stop offset="1" stop-color="#FFACA8"/>
</linearGradient>
<linearGradient id="paint7_linear_85_183" x1="7.56569" y1="61.736" x2="9.04226" y2="87.269" gradientUnits="userSpaceOnUse">
<stop stop-color="#AD4499"/>
<stop offset="1" stop-color="#FFACA8"/>
</linearGradient>
</defs>
</svg>
