<svg width="129" height="144" viewBox="0 0 129 144" fill="none" xmlns="http://www.w3.org/2000/svg">
<path style="mix-blend-mode:screen" opacity="0.5" d="M74.7194 4.50471L29.2137 58.8457L37.6653 74.0788L103.265 82.9572L74.7194 4.50471Z" fill="url(#paint0_linear_85_421)"/>
<path d="M104.975 9.57342C96.752 4.04868 83.7487 4.65558 74.5845 10.8538C65.4203 17.052 62.9947 24.5325 62.1862 27.9018C61.3776 31.271 60.3674 34.1665 59.5589 36.7292C58.7503 39.2919 61.405 42.4967 61.405 42.4967C58.5311 46.1107 60.7668 54.6934 61.3678 56.7765C61.035 57.5791 60.8373 58.2604 60.8803 58.7342C61.0017 60.0048 61.6811 60.596 62.5033 60.8681C63.1298 63.6501 63.6779 66.9371 63.6779 68.3448C63.6779 70.4121 63.4039 77.2995 71.4893 77.4345C79.5748 77.5696 91.2273 72.779 98.5727 66.9176C105.918 61.0561 113.6 49.1961 115.824 37.3361C118.048 25.4761 113.195 15.1001 104.975 9.57342Z" fill="#F2A983"/>
<path d="M61.3756 56.7763C62.5071 54.0355 65.2754 49.8127 66.0389 47.0523C67.0178 43.4794 59.8896 39.9085 59.8896 39.9085C60.2794 40.8352 60.7924 41.7051 61.4147 42.4946C58.531 46.1204 60.7667 54.6933 61.3756 56.7763Z" fill="#D88F69"/>
<g style="mix-blend-mode:multiply" opacity="0.15">
<path d="M104.974 9.57342C96.7518 4.04868 83.7485 4.65558 74.5844 10.8538C67.2957 15.7853 64.271 21.5254 62.9299 25.3626C64.1457 28.1563 65.8411 30.3176 68.2158 30.8266C76.2661 32.5573 83.821 30.0435 87.8872 31.2573C90.9726 32.1775 92.5329 38.0076 92.8775 43.2837C93.222 48.5598 96.511 50.3786 95.4734 56.2616C94.5729 61.3635 87.3625 68.9869 85.3519 74.4059C90.1797 72.4932 94.9135 69.8405 98.5765 66.9176C105.922 61.0443 113.604 49.1961 115.828 37.3361C118.052 25.4761 113.195 15.1001 104.974 9.57342Z" fill="#F2A983"/>
</g>
<path d="M105.943 5.79106C93.255 -3.06771 78.3645 0.505164 70.6255 5.79106C67.9141 7.64308 64.86 10.4759 61.569 16.4098C58.8595 21.3042 58.8066 31.2593 70.2692 32.152C76.4674 32.6356 84.6743 31.4355 90.9077 30.2315C97.6306 34.5894 94.9583 41.7469 95.8647 44.1314C96.7711 46.516 97.752 49.5935 99.2672 50.4608C100.193 50.9913 101.945 49.4721 102.4 48.9514C103.496 47.6906 111.127 38.8514 111.613 49.7678C113.537 45.8033 115.031 41.5668 115.826 37.3302C116.148 35.6201 116.325 33.886 116.356 32.1461C118.496 27.8567 118.171 14.3268 105.943 5.79106Z" fill="#563317"/>
<path d="M95.865 44.1374C96.7695 46.5317 97.7523 49.5994 99.2676 50.4667C100.194 50.9973 101.946 49.4781 102.4 48.9573C103.496 47.6965 111.128 38.8573 111.613 49.7737C113.538 45.8093 115.031 41.5727 115.826 37.3362C116.148 35.6254 116.326 33.8906 116.357 32.1501C109.176 35.8502 100.319 37.1776 95.5342 37.6416C95.8827 40.3844 95.3952 42.9001 95.865 44.1374Z" fill="#634024"/>
<path d="M67.0646 76.3656C67.7596 66.3479 65.9017 61.291 65.9017 61.291C65.7901 60.8545 63.9283 61.3439 62.4991 60.8701C63.1256 63.6521 63.6738 66.9391 63.6738 68.3467C63.6718 69.9208 63.5152 74.3237 67.0646 76.3656Z" fill="#D88F69"/>
<path d="M107.5 56.9096C104.743 60.9954 101.626 64.4762 98.5724 66.9175C91.9905 72.1701 81.9473 76.5555 74.1124 77.3131C74.9503 79.5958 76.6125 85.0579 75.6003 90.2342C74.2788 97.006 85.5848 99.2398 97.803 92.2428C110.021 85.2459 112.382 76.2011 112.382 76.2011C112.382 76.2011 106.452 65.7644 107.5 56.9096Z" fill="#D88F69"/>
<g style="mix-blend-mode:multiply" opacity="0.15">
<path d="M107.5 56.9096C104.743 60.9954 101.626 64.4762 98.5724 66.9175C91.9905 72.1701 81.9473 76.5555 74.1124 77.3131C74.2318 77.6361 74.3669 78.0297 74.504 78.4721C78.2511 78.3449 85.5907 77.6499 92.7756 74.4059C100.17 71.064 106.417 78.0003 109.316 82.1155C111.723 78.7168 112.378 76.205 112.378 76.205C112.378 76.205 106.452 65.7644 107.5 56.9096Z" fill="#D88F69"/>
</g>
<path d="M101.885 58.9104C102.864 59.5428 105.163 60.4512 109.624 55.6743C114.086 50.8974 114.006 46.3966 111.795 44.8969C109.585 43.3973 107.451 44.3096 106.314 46.0422C105.176 47.7748 101.885 58.9104 101.885 58.9104Z" fill="#F2A983"/>
<g style="mix-blend-mode:multiply" opacity="0.15">
<path d="M101.885 58.9104C102.864 59.5428 105.163 60.4512 109.624 55.6743C114.086 50.8974 114.006 46.3966 111.795 44.8969C109.585 43.3973 107.451 44.3096 106.314 46.0422C105.176 47.7748 101.885 58.9104 101.885 58.9104Z" fill="#F2A983"/>
</g>
<path d="M93.7684 61.5613L92.9344 47.9178C93.0869 47.8912 93.2306 47.8276 93.3528 47.7327C93.4751 47.6377 93.5722 47.5142 93.6357 47.373C93.6992 47.2318 93.7272 47.0772 93.7171 46.9227C93.707 46.7682 93.6593 46.6186 93.578 46.4868C93.4967 46.355 93.3843 46.2452 93.2508 46.1669C93.1172 46.0886 92.9665 46.0442 92.8118 46.0377C92.6572 46.0311 92.5032 46.0625 92.3635 46.1292C92.2238 46.1958 92.1025 46.2957 92.0103 46.4201L78.9953 40.5958C79.0695 40.471 79.114 40.3308 79.1254 40.186C79.1367 40.0413 79.1147 39.8958 79.0609 39.761C79.0072 39.6261 78.9231 39.5053 78.8153 39.4081C78.7075 39.3108 78.5787 39.2397 78.439 39.2001C78.2993 39.1605 78.1524 39.1535 78.0096 39.1798C77.8667 39.206 77.7319 39.2647 77.6153 39.3514C77.4988 39.438 77.4037 39.5503 77.3375 39.6795C77.2713 39.8087 77.2356 39.9514 77.2333 40.0966C77.2345 40.2577 77.2762 40.416 77.3547 40.5567L67.4896 44.6288C67.4083 44.4807 67.2888 44.3572 67.1435 44.2711C66.9981 44.185 66.8324 44.1395 66.6635 44.1394C66.4632 44.1395 66.2683 44.204 66.1075 44.3234L60.5925 38.3464C60.7321 38.1833 60.8121 37.9777 60.8196 37.7633C60.827 37.5488 60.7615 37.3381 60.6336 37.1657C60.5057 36.9934 60.3231 36.8695 60.1157 36.8145C59.9082 36.7594 59.6883 36.7764 59.4917 36.8627C59.2952 36.949 59.1338 37.0994 59.0339 37.2893C58.934 37.4793 58.9016 37.6975 58.9419 37.9083C58.9822 38.1191 59.0929 38.31 59.2558 38.4497C59.4188 38.5894 59.6243 38.6696 59.8388 38.6773L61.3384 57.5479C61.2121 57.5765 61.0931 57.6306 60.9885 57.707C60.884 57.7833 60.7962 57.8803 60.7306 57.9919C60.665 58.1035 60.6229 58.2274 60.6071 58.3558C60.5912 58.4843 60.6018 58.6147 60.6382 58.7389C60.6747 58.8631 60.7362 58.9785 60.819 59.0781C60.9018 59.1776 61.0041 59.2591 61.1196 59.3176C61.2351 59.376 61.3613 59.4102 61.4906 59.418C61.6198 59.4257 61.7492 59.4069 61.8709 59.3627L66.5519 65.4435C66.4706 65.523 66.4043 65.6165 66.3561 65.7195L63.8521 64.8797C63.8656 64.8153 63.8722 64.7496 63.8717 64.6839C63.8717 64.4961 63.816 64.3125 63.7117 64.1564C63.6074 64.0002 63.4591 63.8785 63.2856 63.8066C63.1121 63.7348 62.9212 63.716 62.737 63.7526C62.5528 63.7893 62.3836 63.8797 62.2508 64.0125C62.118 64.1453 62.0276 64.3144 61.991 64.4986C61.9543 64.6828 61.9731 64.8737 62.045 65.0472C62.1169 65.2207 62.2386 65.369 62.3947 65.4734C62.5509 65.5777 62.7344 65.6334 62.9222 65.6334C63.0023 65.6325 63.0819 65.6213 63.1591 65.6001L66.7711 74.9326C66.6258 75.009 66.5028 75.122 66.4143 75.2603C66.3259 75.3987 66.275 75.5577 66.2667 75.7217C66.2583 75.8857 66.2929 76.0491 66.3668 76.1957C66.4408 76.3423 66.5517 76.4671 66.6886 76.5578C66.8255 76.6486 66.9836 76.7021 67.1474 76.7131C67.3113 76.7242 67.4752 76.6923 67.623 76.6208C67.7708 76.5493 67.8974 76.4405 67.9904 76.3051C68.0834 76.1697 68.1395 76.0125 68.1533 75.8489L80.213 75.4926C80.233 75.6376 80.2864 75.7761 80.369 75.8971C80.4516 76.0181 80.5611 76.1182 80.6889 76.1898C80.8167 76.2613 80.9594 76.3022 81.1057 76.3093C81.252 76.3164 81.3979 76.2895 81.5321 76.2307C81.6662 76.1718 81.7849 76.0827 81.8788 75.9703C81.9727 75.8579 82.0393 75.7253 82.0733 75.5828C82.1073 75.4403 82.1078 75.2919 82.0747 75.1492C82.0417 75.0065 81.9761 74.8734 81.8829 74.7604L93.1301 63.2528C93.2981 63.3826 93.5052 63.4517 93.7175 63.4485C93.9627 63.4461 94.1975 63.3487 94.3725 63.1768C94.5474 63.0048 94.6488 62.7717 94.6554 62.5265C94.662 62.2813 94.5732 62.0431 94.4078 61.862C94.2424 61.6809 94.0132 61.571 93.7684 61.5554V61.5613ZM62.4915 58.3819C62.4782 58.2413 62.4337 58.1054 62.3612 57.9841C62.2888 57.8629 62.1901 57.7593 62.0726 57.681L66.4462 46.007C66.5197 46.0258 66.5953 46.0357 66.6713 46.0364C66.7007 46.0364 66.7261 46.0364 66.7555 46.0364L68.8209 56.0209C68.6538 56.0758 68.5055 56.1765 68.3927 56.3114C68.2799 56.4464 68.2071 56.6102 68.1827 56.7844L62.4915 58.3819ZM60.4379 38.4952L65.9548 44.4722C65.8599 44.5798 65.7911 44.7079 65.7537 44.8464C65.7162 44.9849 65.7111 45.1301 65.7387 45.2709C65.7664 45.4117 65.826 45.5442 65.913 45.6583C66 45.7724 66.1121 45.8649 66.2406 45.9287L61.8729 57.5851C61.7737 57.5485 61.6692 57.5287 61.5636 57.5264L60.0639 38.6616C60.1993 38.6343 60.327 38.5775 60.4379 38.4952ZM69.1185 57.867C69.2808 57.8693 69.441 57.8296 69.5835 57.7517C69.7259 57.6738 69.8458 57.5604 69.9315 57.4225C70.0172 57.2846 70.0658 57.1268 70.0726 56.9646C70.0793 56.8024 70.044 56.6412 69.9701 56.4966L78.9072 53.977C78.9608 54.1057 79.0421 54.221 79.1453 54.3147C79.2485 54.4084 79.371 54.4783 79.5043 54.5193L77.8206 63.5112C77.7209 63.4743 77.6156 63.4551 77.5093 63.4544C77.3846 63.4544 77.2612 63.479 77.146 63.5267C77.0308 63.5744 76.9261 63.6444 76.8379 63.7325C76.7498 63.8207 76.6798 63.9254 76.6321 64.0406C76.5844 64.1558 76.5598 64.2792 76.5598 64.4039C76.5598 64.4196 76.5598 64.4333 76.5598 64.4509L68.12 65.8605C68.0778 65.7129 68 65.5779 67.8935 65.4673C67.787 65.3568 67.6551 65.274 67.5092 65.2262L69.0284 57.8514C69.0637 57.8533 69.0911 57.867 69.1185 57.867ZM67.3291 74.8367V67.0684C67.5596 67.042 67.7725 66.932 67.9273 66.7592C68.0821 66.5863 68.1681 66.3627 68.169 66.1306C68.169 66.115 68.169 66.1013 68.169 66.0876L76.6186 64.7172C76.6804 64.9064 76.8003 65.0712 76.9613 65.1883C77.1223 65.3054 77.3162 65.3686 77.5152 65.3691C77.5811 65.3691 77.6467 65.3618 77.711 65.3475L80.7572 74.4961C80.6061 74.5674 80.4765 74.6774 80.3816 74.8149C80.2868 74.9524 80.2299 75.1126 80.2169 75.2792L68.1572 75.6355C68.1275 75.4285 68.0302 75.2371 67.8804 75.0913C67.7306 74.9454 67.5368 74.8531 67.3291 74.8289V74.8367ZM81.1488 74.406C81.083 74.4054 81.0174 74.412 80.953 74.4256L77.9028 65.2614C78.0662 65.1852 78.2044 65.0641 78.3015 64.9123C78.3986 64.7605 78.4504 64.5841 78.451 64.4039L92.7856 62.7261C92.8219 62.8645 92.8888 62.993 92.9813 63.102L81.7361 74.6057C81.5683 74.475 81.3614 74.4046 81.1488 74.406ZM78.4256 64.1846C78.369 63.947 78.2232 63.7402 78.0184 63.6071L79.7118 54.5604C79.7353 54.5604 79.7549 54.5604 79.7764 54.5604C80.0282 54.5604 80.2697 54.4604 80.4478 54.2823C80.6259 54.1042 80.7259 53.8627 80.7259 53.6109C80.7252 53.5005 80.7047 53.391 80.6652 53.2879L92.0358 47.585C92.1181 47.6847 92.2204 47.7662 92.336 47.8242C92.4516 47.8821 92.5781 47.9154 92.7073 47.9217L93.5413 61.5652C93.3219 61.6035 93.1231 61.7179 92.9798 61.8884C92.8366 62.0589 92.7581 62.2744 92.7582 62.4971L78.4256 64.1846ZM91.9163 47.4088L80.5732 53.098C80.4867 52.9661 80.3688 52.8579 80.23 52.7831C80.0912 52.7082 79.936 52.6691 79.7784 52.6692L78.359 41.0305C78.5469 40.9961 78.7201 40.9061 78.8563 40.772L91.8968 46.6081C91.8459 46.7276 91.8192 46.856 91.8185 46.9859C91.8173 47.1326 91.8509 47.2775 91.9163 47.4088ZM77.4878 40.7388C77.6554 40.9203 77.8872 41.0291 78.1339 41.0422L79.5571 52.6986C79.3502 52.7479 79.166 52.8656 79.0342 53.0325C78.9024 53.1995 78.8307 53.406 78.8308 53.6187C78.8314 53.6686 78.836 53.7184 78.8445 53.7675L69.8389 56.3126C69.7506 56.2047 69.6395 56.1177 69.5136 56.0578C69.3877 55.9979 69.2501 55.9666 69.1106 55.9661C69.0832 55.9661 69.0558 55.9661 69.0265 55.9661L66.961 45.9816C67.1502 45.9192 67.315 45.7988 67.432 45.6375C67.549 45.4762 67.6123 45.2822 67.613 45.083C67.6119 44.9961 67.5987 44.9098 67.5738 44.8265L77.4878 40.7388ZM62.0706 59.2629C62.1811 59.189 62.2747 59.0925 62.3452 58.9798C62.4157 58.8671 62.4616 58.7407 62.4798 58.609L68.1729 57.0056C68.191 57.1869 68.2613 57.359 68.3753 57.5012C68.4892 57.6433 68.642 57.7493 68.815 57.8063L67.2958 65.1811C67.2684 65.1811 67.243 65.1811 67.2136 65.1811C67.0424 65.1824 66.8747 65.2297 66.7281 65.3182L62.0706 59.2629ZM63.3666 65.5277C63.5478 65.4317 63.6933 65.28 63.7817 65.095L66.2856 65.9349C66.2714 65.9992 66.2641 66.0648 66.2641 66.1306C66.265 66.3627 66.351 66.5863 66.5058 66.7592C66.6606 66.932 66.8734 67.042 67.104 67.0684V74.8367C67.061 74.8415 67.0185 74.8494 66.9767 74.8602L63.3666 65.5277Z" fill="#AD4499"/>
<path d="M4.00196 51.7353C4.00196 49.9048 5.29602 49.1569 6.88179 50.0712L32.2893 64.7405C33.8731 65.6548 35.1692 67.9003 35.1692 69.7289V135.636C35.1692 137.467 33.8751 138.214 32.2893 137.298L6.88179 122.631C5.29602 121.717 4 119.471 4 117.643L4.00196 51.7353Z" fill="#BCBEC0"/>
<g filter="url(#filter0_d_85_421)">
<path d="M33.5302 135.097C33.2143 135.079 32.9081 134.975 32.641 134.797L7.27124 119.376C5.92077 118.553 4.78333 116.478 4.78333 114.848V51.8648C4.78333 51.4532 4.86345 50.5228 5.60416 50.5228C5.91998 50.5419 6.226 50.6454 6.4934 50.8233L31.8573 66.246C33.2058 67.0693 34.3452 69.142 34.3452 70.7742V133.757C34.3432 134.161 34.2631 135.097 33.5302 135.097Z" fill="url(#paint1_linear_85_421)"/>
</g>
<path d="M35.1674 135.636V69.7289C35.1674 67.9004 33.8714 65.6549 32.2876 64.7406L6.88198 50.0713C6.11651 49.6288 5.41955 49.5799 4.90271 49.8481L8.32092 47.8825C8.83189 47.6456 9.50731 47.7102 10.2454 48.137L35.6529 62.8044C37.2367 63.7206 38.5328 65.9642 38.5328 67.7947V133.7C38.5328 134.628 38.1999 135.278 37.6655 135.574L34.4822 137.388C34.909 137.054 35.1674 136.455 35.1674 135.636Z" fill="black"/>
<path d="M31.9 65.4139L6.49244 50.7446C6.22457 50.5753 5.91803 50.4769 5.60167 50.4588C4.85969 50.4588 4.77942 51.3515 4.77942 51.7352V55.126L34.3922 72.2229V69.7288C34.3922 68.1685 33.2508 66.1931 31.9 65.4139Z" fill="#B8529B"/>
<path d="M32.6436 94.038C32.6436 102.366 26.7958 105.741 19.5855 101.577C12.3751 97.4132 6.52734 87.2858 6.52734 78.9615C6.52734 70.6372 12.3732 67.2581 19.5855 71.4222C26.7978 75.5864 32.6436 85.7118 32.6436 94.038Z" fill="#779EB3"/>
<path d="M24.2548 100.213C23.595 98.8698 24.2548 93.6896 24.2548 93.6896L14.9771 88.3352C14.9771 88.3352 15.6368 94.2769 14.9771 94.8564C14.9771 94.8564 16.9348 98.997 19.3037 100.436C21.6725 101.875 24.2548 100.213 24.2548 100.213Z" fill="#90B7CC"/>
<path d="M14.0786 82.9397C14.0786 82.9397 13.8926 82.0137 13.4717 81.7063C13.0508 81.3989 12.6103 81.7592 12.8981 83.5329C13.1859 85.3066 13.4717 85.7158 13.5833 86.1739C13.6949 86.632 14.1236 87.4953 14.5093 86.7729L14.0786 82.9397Z" fill="#F2A983"/>
<path opacity="0.5" d="M14.0786 82.9397C14.0786 82.9397 13.8926 82.0137 13.4717 81.7063C13.0508 81.3989 12.6103 81.7592 12.8981 83.5329C13.1859 85.3066 13.4717 85.7158 13.5833 86.1739C13.6949 86.632 14.1236 87.4953 14.5093 86.7729L14.0786 82.9397Z" fill="#D88F69"/>
<path d="M14.0786 82.9397C14.0786 82.9397 13.8926 82.0137 13.4717 81.7063C13.0508 81.3989 12.6103 81.7592 12.8981 83.5329C13.1859 85.3066 13.4717 85.7158 13.5833 86.1739C13.6949 86.632 14.1236 87.4953 14.5093 86.7729L14.0786 82.9397Z" fill="#90B7CC"/>
<path d="M25.0533 89.2748C25.0533 89.2748 25.249 88.5661 25.6602 88.7442C26.0713 88.9224 26.5235 89.7916 26.2357 91.2325C25.9479 92.6734 25.6602 92.7517 25.5505 93.0826C25.4409 93.4135 25.0082 93.7796 24.6226 92.6127L25.0533 89.2748Z" fill="#9CC3D8"/>
<path d="M19.6108 75.8918C21.6899 77.0919 23.957 79.7388 24.8654 82.6265C25.7738 85.5141 25.4136 87.1978 25.3607 88.0063C25.2941 89.039 25.1739 90.0676 25.0005 91.0878C24.8223 92.0667 24.7695 93.9069 24.4132 94.9524C24.0568 95.9978 23.3364 96.0076 22.4182 96.2523C21.5 96.497 20.0689 96.0898 19.6128 95.8216C19.1566 95.5534 17.7255 94.3181 16.8073 93.0123C15.8892 91.7065 15.1726 90.8587 14.8124 89.41C14.4522 87.9613 14.4013 86.0447 14.2251 84.8641C14.0489 83.6836 13.9197 82.2349 13.8688 81.3676C13.8179 80.5003 13.4557 78.4016 14.3641 76.5614C15.2725 74.7211 17.5317 74.6917 19.6108 75.8918Z" fill="#A9D0E5"/>
<path opacity="0.5" d="M18.7576 95.156C17.0501 93.356 16.0635 90.9913 15.9854 88.5115C15.9345 87.3368 15.0868 85.9762 14.5954 84.8368C14.104 83.6974 14.0884 80.6649 14.0884 80.6649L13.783 80.4221C13.8104 80.8136 13.8476 81.1328 13.8632 81.3677C13.9141 82.235 14.0414 83.6856 14.2195 84.8642C14.3977 86.0428 14.4525 87.9516 14.8069 89.4101C15.1612 90.8686 15.8836 91.7065 16.8018 93.0123C17.3731 93.7965 18.029 94.5154 18.7576 95.156Z" fill="#D88F69"/>
<path d="M22.4164 96.2522C23.3345 96.0075 24.053 95.9957 24.4113 94.9522C24.7696 93.9088 24.8224 92.0607 24.9986 91.0877C25.1697 90.0706 25.288 89.0453 25.353 88.016C25.3667 87.7928 25.4058 87.505 25.4332 87.1428L25.0417 87.0058C25.0417 87.0058 25.0241 90.0187 24.5327 90.5904C24.0413 91.1621 23.1955 91.534 23.1446 92.6597C23.0937 93.7854 22.8001 96.3794 20.3725 96.1034H20.2511C20.8972 96.2776 21.7801 96.4342 22.4164 96.2522Z" fill="#9CC3D8"/>
<path d="M19.4291 89.6978C19.4291 89.6978 19.0219 89.0302 19.0219 88.6582C19.0219 88.2863 19.2177 86.8219 19.2588 85.6531C19.2999 84.4843 19.018 84.3669 18.2349 83.5661C17.4518 82.7654 15.8093 81.5418 15.2063 81.1229C14.7384 80.7999 15.0575 79.2767 15.3316 78.3723C15.6957 78.848 16.5806 79.8053 18.5814 81.1934C21.5396 83.247 24.2041 82.7596 24.2041 82.7596L15.222 77.0665L15.1769 77.4188L14.3527 76.5653C13.4522 78.4036 13.8085 80.4925 13.8633 81.3598C13.9181 82.227 14.0414 83.6777 14.2196 84.8563C14.3977 86.0349 14.4526 87.9437 14.8069 89.4022C15.1613 90.8607 15.8837 91.6986 16.8019 93.0044C17.72 94.3102 19.1355 95.5495 19.6014 95.8118C19.5799 94.3905 19.4918 91.1915 19.4918 91.1915L19.4291 89.6978Z" fill="#90B7CC"/>
<path d="M26.0362 85.8331C26.2829 84.3805 26.0597 78.0022 19.8243 74.49C13.5889 70.8114 12.8665 76.2382 13.1132 77.9748C13.2678 79.0672 13.3598 81.4204 13.5458 81.7493C13.7064 81.8917 13.8215 82.0783 13.8767 82.2857C13.9413 82.597 14.047 83.5367 14.047 83.5367C14.047 83.5367 14.2565 81.3108 14.3583 80.6647C14.4821 80.0657 14.5626 79.4585 14.5991 78.8479C14.6715 77.7751 14.9691 77.2015 15.713 77.1427C16.457 77.084 18.5772 79.0319 19.3055 79.5703L19.9163 79.9208C20.6446 80.2242 22.7629 80.7234 23.5088 81.6436C24.2547 82.5637 24.5503 83.478 24.6227 84.635C24.6645 85.3371 24.7449 86.0365 24.8635 86.7298C24.9653 87.4933 25.1689 89.9561 25.1689 89.9561C25.1689 89.9561 25.2668 89.1339 25.3314 88.8989C25.396 88.664 25.6603 88.7443 25.6603 88.7443C25.8463 88.6288 25.8815 86.7454 26.0362 85.8331Z" fill="#385F74"/>
<path d="M21.745 79.5352L16.2868 76.3852L14.3291 76.8923C21.7 84.6763 24.8852 82.5443 24.8852 82.5443L21.745 79.5352Z" fill="#385F74"/>
<path d="M11.925 94.2807C14.0786 97.327 16.7215 99.921 19.5857 101.573C22.4499 103.226 25.128 103.694 27.2874 103.116L24.155 99.919C24.155 99.919 21.3809 101.626 19.617 100.608C17.8531 99.5901 14.9772 94.6292 14.9772 94.6292L11.925 94.2807Z" fill="#385F74"/>
<path d="M26.3083 81.1346L27.5946 81.8766V83.3606L27.8315 83.4976V81.7396L26.3083 80.8586V81.1346Z" fill="#D0202D"/>
<path d="M25.2947 79.9796L28.0864 81.5927V84.8171L28.3253 84.9542V81.4537L25.2947 79.7055V79.9796Z" fill="white"/>
<path d="M12.8604 73.3702L11.5742 72.6282V74.1122L11.3373 73.9751V72.2151L12.8604 73.0961V73.3702Z" fill="#D0202D"/>
<path d="M13.8747 73.3878L11.083 71.7766V74.9991L10.8441 74.862V71.3635L13.8747 73.1118V73.3878Z" fill="white"/>
<path d="M26.3083 99.6313L27.5946 100.373V98.8893L27.8315 99.0264V100.786L26.3083 99.9054V99.6313Z" fill="#D0202D"/>
<path d="M25.2947 99.6137L28.0864 101.225V98.0005L28.3253 98.1395V101.638L25.2947 99.8877V99.6137Z" fill="white"/>
<path d="M12.8604 91.867L11.5742 91.125V89.6411L11.3373 89.504V91.2621L12.8604 92.1431V91.867Z" fill="#D0202D"/>
<path d="M13.8747 93.022L11.083 91.4088V88.1844L10.8441 88.0473V91.5458L13.8747 93.296V93.022Z" fill="white"/>
<path d="M24.9888 89.4845C24.9817 89.3574 24.9449 89.2339 24.8813 89.1237C24.8177 89.0135 24.7291 88.9198 24.6227 88.8501C24.5816 88.8208 24.5323 88.805 24.4818 88.805C24.4312 88.805 24.3819 88.8208 24.3408 88.8501L22.3047 86.1817C22.3314 86.1318 22.3449 86.0759 22.3439 86.0193C22.3368 85.8922 22.3 85.7687 22.2364 85.6585C22.1728 85.5483 22.0842 85.4546 21.9778 85.3849C21.782 85.2773 21.6372 85.3517 21.6156 85.5494L17.4182 83.1218C17.4043 83.0034 17.3646 82.8895 17.3021 82.7881C17.2395 82.6867 17.1555 82.6001 17.056 82.5345C16.8603 82.417 16.6899 82.5129 16.6899 82.7459C16.6928 82.8128 16.706 82.8789 16.7291 82.9417L14.695 83.2628C14.6321 83.1314 14.5338 83.0202 14.4111 82.9417C14.2154 82.8262 14.045 82.9202 14.045 83.1531C14.0521 83.2782 14.0879 83.4 14.1497 83.509C14.2115 83.618 14.2976 83.7113 14.4014 83.7816L14.7048 88.0161C14.5638 87.9946 14.464 88.0905 14.464 88.2726C14.4706 88.3997 14.5073 88.5235 14.5709 88.6337C14.6345 88.744 14.7234 88.8376 14.8301 88.9069C14.8722 88.9335 14.9197 88.9502 14.9691 88.9559L16.0791 91.3795C16.0374 91.4032 16.0035 91.4387 15.9819 91.4815C15.9603 91.5244 15.9519 91.5727 15.9578 91.6203C15.9647 91.7474 16.0015 91.871 16.0651 91.9812C16.1287 92.0914 16.2173 92.1851 16.3239 92.2547C16.4648 92.3349 16.5842 92.3134 16.6469 92.2155L19.1587 94.7958C19.1514 94.8279 19.1475 94.8607 19.1469 94.8937C19.1536 95.0208 19.1902 95.1445 19.2538 95.2548C19.3174 95.365 19.4063 95.4587 19.513 95.528C19.7088 95.6455 19.8791 95.5515 19.8791 95.3166C19.8783 95.279 19.8737 95.2416 19.8654 95.205L22.387 95.53C22.4452 95.6989 22.5582 95.8436 22.708 95.9411C22.9038 96.0566 23.0761 95.9626 23.0761 95.7296C23.071 95.5901 23.0277 95.4547 22.9508 95.3381L24.0334 94.1635C24.0808 94.2234 24.1385 94.2744 24.2038 94.3142C24.3995 94.4317 24.5698 94.3357 24.5698 94.1028C24.5646 93.9904 24.5364 93.8803 24.4869 93.7793C24.4374 93.6782 24.3677 93.5884 24.2821 93.5154L24.6286 89.69C24.8283 89.8114 24.9888 89.7155 24.9888 89.4845ZM23.9062 93.4763L22.479 91.4637C22.5127 91.4113 22.5297 91.3499 22.5279 91.2875C22.5239 91.1691 22.491 91.0535 22.432 90.9508L24.4152 89.5001C24.4515 89.5529 24.495 89.6003 24.5444 89.6411L24.1979 93.4684C24.1558 93.436 24.1038 93.4191 24.0506 93.4205C23.9975 93.4219 23.9465 93.4416 23.9062 93.4763ZM17.2166 88.0808L19.1606 87.9809C19.2018 88.1779 19.3123 88.3536 19.4719 88.4762V90.9528C19.4336 90.9311 19.3898 90.9211 19.3459 90.9243C19.302 90.9274 19.26 90.9435 19.2252 90.9704L17.2029 88.392C17.2278 88.343 17.2399 88.2884 17.2381 88.2335C17.2375 88.1818 17.2303 88.1305 17.2166 88.0808ZM17.4124 83.2197L21.6097 85.6434C21.6218 85.7503 21.6558 85.8536 21.7096 85.9468L19.6148 87.7401C19.5824 87.7098 19.547 87.683 19.5091 87.6598C19.4816 87.6433 19.452 87.6308 19.421 87.6226L17.3262 83.4076C17.3549 83.3854 17.3781 83.357 17.3941 83.3244C17.4101 83.2918 17.4183 83.256 17.4182 83.2197H17.4124ZM19.5502 91.0037V88.5252C19.578 88.5457 19.6107 88.5586 19.645 88.5624C19.6793 88.5663 19.714 88.561 19.7456 88.547C19.7773 88.5331 19.8046 88.5111 19.825 88.4832C19.8453 88.4553 19.8579 88.4225 19.8615 88.3881L21.8192 90.7237C21.8016 90.7686 21.793 90.8165 21.7938 90.8647C21.7945 90.9313 21.8057 90.9973 21.8271 91.0604L19.7988 91.3051C19.7444 91.1859 19.661 91.0823 19.5561 91.0037H19.5502ZM24.2879 88.9011C24.262 88.9512 24.2492 89.0071 24.2507 89.0635C24.2543 89.1811 24.2866 89.296 24.3447 89.3983L22.3635 90.849C22.3083 90.7703 22.2377 90.7037 22.156 90.6532C22.1139 90.6175 22.0604 90.5979 22.0052 90.5979C21.95 90.5979 21.8966 90.6175 21.8545 90.6532L19.8811 88.2902C19.8709 88.1206 19.8079 87.9583 19.701 87.8263L21.782 86.0467C21.8348 86.1185 21.9013 86.1791 21.9778 86.2248C22.0186 86.255 22.068 86.2713 22.1188 86.2713C22.1695 86.2713 22.2189 86.255 22.2597 86.2248L24.2879 88.9011ZM16.7741 83.0631C16.8359 83.1946 16.9336 83.3059 17.056 83.3841C17.1144 83.4208 17.1832 83.4373 17.2518 83.4311L19.3446 87.6129C19.2291 87.6129 19.1489 87.7088 19.1489 87.8713L17.1794 87.9711C17.1185 87.8186 17.0118 87.6886 16.874 87.5991C16.8158 87.5621 16.7469 87.5456 16.6782 87.5522L14.6793 83.8148C14.7116 83.7874 14.7368 83.7527 14.7528 83.7135C14.7688 83.6743 14.7752 83.6319 14.7714 83.5897C14.7701 83.5196 14.7575 83.4502 14.7342 83.3841L16.7741 83.0631ZM14.4855 83.8364C14.5304 83.8488 14.5777 83.8488 14.6226 83.8364L16.6156 87.5561C16.5777 87.5826 16.5477 87.6187 16.5284 87.6607C16.5091 87.7026 16.5014 87.749 16.5059 87.7949C16.5081 87.877 16.5254 87.9579 16.5568 88.0338L15.0885 88.3157C15.0273 88.2042 14.9382 88.1105 14.8301 88.0436C14.8172 88.0355 14.8034 88.0289 14.789 88.024L14.4855 83.8364ZM15.0435 88.9461C15.1355 88.9226 15.1962 88.8325 15.1962 88.6916C15.1938 88.6053 15.1752 88.5203 15.1414 88.441L16.6077 88.1571C16.6565 88.2489 16.723 88.3301 16.8035 88.396L16.3473 91.4167L16.3297 91.405C16.2771 91.3719 16.2157 91.3555 16.1535 91.358L15.0435 88.9461ZM16.6782 92.1391C16.6864 92.1065 16.6903 92.0729 16.6899 92.0393C16.6784 91.8254 16.5827 91.6249 16.4237 91.4813L16.8896 88.4527C16.9288 88.4806 16.9757 88.4956 17.0237 88.4956C17.0718 88.4956 17.1187 88.4806 17.1578 88.4527L19.1802 91.0311C19.1567 91.0798 19.1453 91.1336 19.1469 91.1877C19.1534 91.3062 19.1858 91.4218 19.242 91.5264C19.2982 91.6309 19.3767 91.7218 19.4719 91.7926V94.6646C19.4499 94.6492 19.4251 94.6385 19.3988 94.6331C19.3725 94.6277 19.3454 94.6277 19.3192 94.6332C19.2929 94.6387 19.2681 94.6496 19.2462 94.6651C19.2243 94.6806 19.2058 94.7004 19.1919 94.7234L16.6782 92.1391ZM19.8341 95.0914C19.7805 94.9393 19.6831 94.8065 19.5541 94.7097V91.8377C19.7362 91.9179 19.8771 91.824 19.8771 91.6066C19.8756 91.5401 19.8644 91.4742 19.8439 91.4109L21.8701 91.1642C21.9331 91.2999 22.0337 91.4147 22.1599 91.4951H22.1716L22.6121 95.0523C22.4574 95.0131 22.3439 95.109 22.3439 95.3028C22.3439 95.341 22.3479 95.3791 22.3556 95.4164L19.8341 95.0914ZM22.8803 95.2422C22.8324 95.1827 22.7748 95.1318 22.71 95.0914H22.6963L22.2578 91.5401C22.2862 91.55 22.3165 91.5532 22.3464 91.5495C22.3763 91.5457 22.4049 91.5351 22.43 91.5185L23.8651 93.5428C23.8456 93.5879 23.8369 93.6368 23.8396 93.6858C23.8428 93.8253 23.8855 93.9611 23.9629 94.0773L22.8803 95.2422Z" fill="white"/>
<path d="M29.7817 120.413C29.7817 121.114 29.2863 121.392 28.6814 121.049L9.27237 109.845C8.95205 109.635 8.68544 109.353 8.49399 109.022C8.30255 108.69 8.19163 108.318 8.17017 107.936V105.722C8.17017 105.023 8.66547 104.743 9.27237 105.086L28.6814 116.292C29.0013 116.502 29.2676 116.784 29.459 117.115C29.6504 117.447 29.7615 117.818 29.7836 118.201L29.7817 120.413Z" fill="#FFACA8"/>
<path d="M20.6155 115.121C20.6155 115.82 20.1202 116.1 19.5153 115.757L9.27237 109.845C8.95205 109.635 8.68544 109.353 8.49399 109.022C8.30255 108.69 8.19163 108.318 8.17017 107.936V105.722C8.17017 105.023 8.66547 104.743 9.27237 105.086L19.5133 111C19.8338 111.209 20.1006 111.491 20.2921 111.823C20.4836 112.154 20.5944 112.526 20.6155 112.909V115.121Z" fill="#AD4499"/>
<path d="M35.5357 16.5919L30.3927 13.622V13.1169L35.5357 16.0849V16.5919Z" fill="#AD4499"/>
<path d="M38.7464 16.6643L30.3927 11.8424V12.3495L38.7464 17.1714V16.6643Z" fill="#AD4499"/>
<path d="M39.7738 17.2594V17.7664L43.4504 19.8886V19.3816L39.7738 17.2594Z" fill="#AD4499"/>
<path d="M34.717 13.5711L41.0484 17.2281V16.7211L34.717 13.064V13.5711Z" fill="#AD4499"/>
<path d="M33.2079 12.1929L30.3927 10.568V11.075L33.2079 12.7V12.1929Z" fill="#AD4499"/>
<path d="M41.7844 17.1459V17.653L43.4505 18.6142V18.1072L41.7844 17.1459Z" fill="#AD4499"/>
<path d="M38.1077 13.7492V14.2563L43.4503 17.3417V16.8346L38.1077 13.7492Z" fill="#AD4499"/>
<path d="M37.7401 13.5379L30.3927 9.29546V9.80251L37.7401 14.0449V13.5379Z" fill="#AD4499"/>
<path d="M32.7909 9.40511L30.3927 8.02295V8.52805L32.7909 9.91217V9.40511Z" fill="#AD4499"/>
<path d="M33.6223 9.88664V10.3937L43.4502 16.0672V15.5602L33.6223 9.88664Z" fill="#AD4499"/>
<path d="M39.0635 11.7544L30.3927 6.74842V7.25548L39.0635 12.2614V11.7544Z" fill="#AD4499"/>
<path d="M39.4568 11.9814V12.4885L43.4506 14.7947V14.2877L39.4568 11.9814Z" fill="#AD4499"/>
<path d="M52.5738 91.3873L47.4327 88.4194V87.9123L52.5738 90.8802V91.3873Z" fill="#AD4499"/>
<path d="M55.7845 91.4618L47.4327 86.6399V87.145L55.7845 91.9669V91.4618Z" fill="#AD4499"/>
<path d="M56.8141 92.0549V92.562L60.4907 94.6842V94.1771L56.8141 92.0549Z" fill="#AD4499"/>
<path d="M51.7554 88.3685L58.0887 92.0235V91.5185L51.7554 87.8614V88.3685Z" fill="#AD4499"/>
<path d="M50.246 86.9903L47.4327 85.3653V85.8724L50.246 87.4973V86.9903Z" fill="#AD4499"/>
<path d="M58.8246 91.9414V92.4484L60.4906 93.4116V92.9046L58.8246 91.9414Z" fill="#AD4499"/>
<path d="M55.1479 88.5467V89.0537L60.4906 92.1372V91.6321L55.1479 88.5467Z" fill="#AD4499"/>
<path d="M54.7801 88.3332L47.4327 84.0928V84.5978L54.7801 88.8403V88.3332Z" fill="#AD4499"/>
<path d="M49.829 84.2024L47.4327 82.8182V83.3253L49.829 84.7094V84.2024Z" fill="#AD4499"/>
<path d="M50.663 84.6841V85.1911L60.4908 90.8647V90.3576L50.663 84.6841Z" fill="#AD4499"/>
<path d="M56.1036 86.5518L47.4327 81.5459V82.0529L56.1036 87.0589V86.5518Z" fill="#AD4499"/>
<path d="M56.4948 86.7769V87.2839L60.4905 89.5902V89.0831L56.4948 86.7769Z" fill="#AD4499"/>
<path d="M34.3921 43.1505L29.2491 40.1826V39.6755L34.3921 42.6435V43.1505Z" fill="#AD4499"/>
<path d="M37.6028 43.225L29.2491 38.4011V38.9081L37.6028 43.7301V43.225Z" fill="#AD4499"/>
<path d="M38.6324 43.8182V44.3253L42.3071 46.4474V45.9404L38.6324 43.8182Z" fill="#AD4499"/>
<path d="M33.5736 40.1317L39.9069 43.7869V43.2798L33.5736 39.6247V40.1317Z" fill="#AD4499"/>
<path d="M32.0644 38.7536L29.2491 37.1286V37.6357L32.0644 39.2587V38.7536Z" fill="#AD4499"/>
<path d="M40.6407 43.7046V44.2117L42.3068 45.1749V44.6678L40.6407 43.7046Z" fill="#AD4499"/>
<path d="M36.9644 40.3099V40.8169L42.307 43.9004V43.3933L36.9644 40.3099Z" fill="#AD4499"/>
<path d="M36.5985 40.0965L29.2491 35.8541V36.3612L36.5985 40.6036V40.0965Z" fill="#AD4499"/>
<path d="M31.6474 35.9656L29.2491 34.5815V35.0886L31.6474 36.4727V35.9656Z" fill="#AD4499"/>
<path d="M32.4795 36.4473V36.9524L42.3073 42.6279V42.1208L32.4795 36.4473Z" fill="#AD4499"/>
<path d="M37.92 38.3149L29.2491 33.307V33.814L37.92 38.82V38.3149Z" fill="#AD4499"/>
<path d="M38.3136 38.5401V39.0471L42.3074 41.3534V40.8463L38.3136 38.5401Z" fill="#AD4499"/>
<path d="M121.084 69.0477L115.941 66.0778V65.5707L121.084 68.5406V69.0477Z" fill="#AD4499"/>
<path d="M124.295 69.1199L115.941 64.298V64.8051L124.295 69.627V69.1199Z" fill="#AD4499"/>
<path d="M125.323 69.7151V70.2202L128.999 72.3423V71.8372L125.323 69.7151Z" fill="#AD4499"/>
<path d="M120.264 66.0267L126.597 69.6837V69.1767L120.264 65.5196V66.0267Z" fill="#AD4499"/>
<path d="M118.754 64.6486L115.941 63.0237V63.5307L118.754 65.1556V64.6486Z" fill="#AD4499"/>
<path d="M123.657 66.2049V66.712L129 69.7954V69.2903L123.657 66.2049Z" fill="#AD4499"/>
<path d="M123.289 65.9934L115.941 61.751V62.2581L123.289 66.5005V65.9934Z" fill="#AD4499"/>
<path d="M118.339 61.8606L115.941 60.4785V60.9836L118.339 62.3677V61.8606Z" fill="#AD4499"/>
<path d="M119.172 62.3423V62.8494L129 68.5229V68.0158L119.172 62.3423Z" fill="#AD4499"/>
<path d="M124.612 64.2101L115.941 59.2041V59.7112L124.612 64.7171V64.2101Z" fill="#AD4499"/>
<path d="M125.006 64.4371V64.9442L129 67.2504V66.7433L125.006 64.4371Z" fill="#AD4499"/>
<path d="M43.5344 29.2839L39.9635 22.3065C40.0452 22.2374 40.1094 22.1499 40.1509 22.0513C40.1924 21.9526 40.21 21.8455 40.2023 21.7388C40.1886 21.4494 40.1059 21.1675 39.9612 20.9165C39.8164 20.6655 39.6138 20.4528 39.3703 20.2959C39.2488 20.2209 39.1097 20.179 38.967 20.1746C38.64 20.1746 38.4266 20.4369 38.4266 20.8402C38.4404 21.1293 38.5231 21.4109 38.6678 21.6616C38.8125 21.9123 39.0151 22.1247 39.2587 22.2811C39.3802 22.3561 39.5192 22.398 39.662 22.4025C39.6952 22.4055 39.7286 22.4055 39.7618 22.4025L43.368 29.4503L58.1391 37.9782L58.2487 37.7825L43.5344 29.2839ZM39.3703 22.0912C39.1596 21.9544 38.9842 21.7698 38.8583 21.5524C38.7324 21.335 38.6596 21.091 38.6459 20.8402C38.6459 20.5602 38.7673 20.3938 38.967 20.3938C39.0705 20.3991 39.1709 20.4308 39.2587 20.4858C39.4694 20.623 39.6448 20.808 39.7707 21.0257C39.8965 21.2434 39.9693 21.4877 39.983 21.7388C39.983 22.0168 39.8617 22.1832 39.662 22.1832C39.5583 22.1788 39.4577 22.1471 39.3703 22.0912Z" fill="#AD4499"/>
<path d="M43.5344 55.5548L39.9635 48.5774C40.0452 48.5082 40.1094 48.4208 40.1509 48.3221C40.1924 48.2235 40.21 48.1164 40.2023 48.0096C40.1886 47.7205 40.1059 47.4389 39.9611 47.1882C39.8164 46.9376 39.6138 46.7252 39.3703 46.5687C39.2488 46.4937 39.1097 46.4518 38.967 46.4474C38.64 46.4474 38.4266 46.7077 38.4266 47.111C38.4404 47.4004 38.5231 47.6823 38.6678 47.9333C38.8125 48.1843 39.0151 48.397 39.2587 48.5539C39.3802 48.6289 39.5192 48.6708 39.662 48.6753C39.6955 48.6744 39.729 48.6704 39.7618 48.6635L43.3641 55.7133L58.1352 64.2412L58.2448 64.0455L43.5344 55.5548ZM39.3703 48.364C39.1598 48.2265 38.9845 48.0415 38.8587 47.8239C38.7328 47.6062 38.66 47.362 38.6459 47.111C38.6459 46.833 38.7673 46.6666 38.967 46.6666C39.0706 46.671 39.1713 46.7027 39.2587 46.7586C39.4694 46.8954 39.6448 47.08 39.7707 47.2974C39.8965 47.5148 39.9693 47.7588 39.983 48.0096C39.983 48.2876 39.8617 48.454 39.662 48.454C39.5586 48.4495 39.4582 48.4185 39.3703 48.364Z" fill="#AD4499"/>
<path d="M117.664 69.6936C117.546 69.6207 117.411 69.5796 117.273 69.5742C116.944 69.5742 116.732 69.8346 116.732 70.2379C116.741 70.5081 116.814 70.7721 116.948 71.0073L111.102 73.9204L96.4188 65.4375L96.3092 65.6333L111.053 74.1455L111.104 74.1749L117.063 71.1933C117.193 71.3892 117.364 71.5548 117.564 71.6788C117.686 71.7527 117.825 71.7939 117.968 71.7982C118.295 71.7982 118.506 71.5378 118.506 71.1345C118.491 70.8445 118.407 70.5622 118.261 70.3115C118.114 70.0607 117.91 69.8488 117.664 69.6936ZM117.958 71.5809C117.854 71.5763 117.752 71.5446 117.664 71.4889C117.454 71.3517 117.279 71.1669 117.154 70.9496C117.028 70.7323 116.956 70.4885 116.942 70.2379C116.942 69.9599 117.061 69.7935 117.263 69.7935C117.366 69.7983 117.467 69.8292 117.555 69.8835C117.765 70.0211 117.94 70.2062 118.065 70.4238C118.191 70.6415 118.263 70.8856 118.277 71.1365C118.277 71.4145 118.15 71.5809 117.954 71.5809H117.958Z" fill="#AD4499"/>
<path d="M80.0797 84.0125L79.9857 83.8168L68.1786 89.4942L53.5445 81.0446C53.5454 81.0264 53.5454 81.0081 53.5445 80.9898C53.5307 80.7007 53.448 80.419 53.3033 80.1684C53.1586 79.9177 52.956 79.7053 52.7124 79.5489C52.5916 79.4739 52.4532 79.432 52.3111 79.4275C51.9822 79.4275 51.7708 79.6879 51.7708 80.0912C51.7845 80.3806 51.8672 80.6625 52.0119 80.9135C52.1566 81.1644 52.3592 81.3772 52.6028 81.5341C52.7236 81.6091 52.862 81.651 53.0041 81.6554C53.1176 81.6572 53.2284 81.6207 53.3187 81.5518C53.4089 81.4829 53.4732 81.3856 53.5014 81.2756L68.1727 89.7448L80.0797 84.0125ZM53.0002 81.4342C52.8969 81.4295 52.7965 81.3985 52.7085 81.3442C52.4984 81.2065 52.3235 81.0214 52.198 80.8038C52.0725 80.5861 51.9999 80.342 51.9861 80.0912C51.9861 79.8132 52.1055 79.6468 52.3072 79.6468C52.4107 79.6517 52.5112 79.6834 52.5989 79.7388C52.809 79.876 52.9839 80.0608 53.1094 80.2781C53.2349 80.4954 53.3074 80.7392 53.3213 80.9898C53.3213 81.2678 53.2019 81.4342 53.0002 81.4342Z" fill="#AD4499"/>
<defs>
<filter id="filter0_d_85_421" x="0.783325" y="50.5228" width="37.5619" height="92.5743" filterUnits="userSpaceOnUse" color-interpolation-filters="sRGB">
<feFlood flood-opacity="0" result="BackgroundImageFix"/>
<feColorMatrix in="SourceAlpha" type="matrix" values="0 0 0 0 0 0 0 0 0 0 0 0 0 0 0 0 0 0 127 0" result="hardAlpha"/>
<feOffset dy="4"/>
<feGaussianBlur stdDeviation="2"/>
<feComposite in2="hardAlpha" operator="out"/>
<feColorMatrix type="matrix" values="0 0 0 0 0 0 0 0 0 0 0 0 0 0 0 0 0 0 0.25 0"/>
<feBlend mode="normal" in2="BackgroundImageFix" result="effect1_dropShadow_85_421"/>
<feBlend mode="normal" in="SourceGraphic" in2="effect1_dropShadow_85_421" result="shape"/>
</filter>
<linearGradient id="paint0_linear_85_421" x1="22.4713" y1="73.7147" x2="99.0189" y2="39.2115" gradientUnits="userSpaceOnUse">
<stop stop-color="#502F8C"/>
<stop offset="0.69" stop-color="white" stop-opacity="0.1"/>
</linearGradient>
<linearGradient id="paint1_linear_85_421" x1="4.70249" y1="56.5843" x2="33.0268" y2="135.655" gradientUnits="userSpaceOnUse">
<stop stop-color="#AD4499"/>
<stop offset="1" stop-color="#FFACA8"/>
</linearGradient>
</defs>
</svg>
